<svg id="Layer_1" data-name="Layer 1" xmlns="http://www.w3.org/2000/svg" viewBox="0 0 360 130.07"><defs><style>.cls-1,.cls-23{font-size:13.96px;}.cls-1{fill:#056b38;}.cls-1,.cls-21,.cls-23{font-family:MrEavesModOT-Reg, Mr Eaves Mod OT;}.cls-2{letter-spacing:-0.01em;}.cls-3{letter-spacing:0.03em;}.cls-4{letter-spacing:-0.02em;}.cls-5{letter-spacing:0.02em;}.cls-6{font-size:9.31px;letter-spacing:0.1em;}.cls-13,.cls-23,.cls-6{fill:#4b8cca;}.cls-17,.cls-18,.cls-19,.cls-20,.cls-6{font-family:MrEavesModOT-Bold, Mr Eaves Mod OT;font-weight:700;}.cls-7{letter-spacing:-0.02em;}.cls-8{letter-spacing:0.15em;}.cls-9{letter-spacing:0.07em;}.cls-10{letter-spacing:0.15em;}.cls-11{letter-spacing:0.05em;}.cls-12{letter-spacing:0.13em;}.cls-13{font-size:39.55px;font-family:MrEavesModOT-Light, Mr Eaves Mod OT;font-weight:300;}.cls-14{letter-spacing:0.02em;}.cls-15,.cls-18{letter-spacing:0.04em;}.cls-16{letter-spacing:0.28em;}.cls-17,.cls-18,.cls-19,.cls-20{fill:#fdb71c;}.cls-19{letter-spacing:0.08em;}.cls-20{letter-spacing:0.01em;}.cls-21{fill:#231f20;font-weight:400;letter-spacing:-1em;}.cls-22{fill:none;stroke:#056b38;stroke-miterlimit:10;}.cls-24{letter-spacing:0.01em;}.cls-25{letter-spacing:0.04em;}.cls-26{letter-spacing:0.03em;}</style></defs><title>logo</title><text class="cls-1" transform="translate(107.05 98.58)"><tspan class="cls-2">P</tspan><tspan x="6.53" y="0">o</tspan><tspan class="cls-3" x="13.12" y="0">r</tspan><tspan x="17.6" y="0">tla</tspan><tspan class="cls-4" x="30.91" y="0">n</tspan><tspan x="37.07" y="0">d </tspan><tspan class="cls-5" x="46.11" y="0">C</tspan><tspan x="54.9" y="0">o</tspan><tspan class="cls-4" x="61.49" y="0">mmun</tspan><tspan x="92.59" y="0">i</tspan><tspan class="cls-5" x="95.37" y="0">t</tspan><tspan x="99.55" y="0">y </tspan><tspan class="cls-5" x="107.31" y="0">C</tspan><tspan class="cls-4" x="116.11" y="0">o</tspan><tspan class="cls-5" x="122.42" y="0">l</tspan><tspan x="125.47" y="0">l</tspan><tspan class="cls-4" x="128.25" y="0">eg</tspan><tspan x="140.1" y="0">e </tspan></text><text class="cls-6" transform="translate(81.53 84.89)">BREAKING BARRIER<tspan class="cls-7" x="91.62" y="0">S</tspan><tspan x="96.06" y="0">, </tspan><tspan class="cls-8" x="101.89" y="0">CRE</tspan><tspan class="cls-9" x="121.86" y="0">A</tspan><tspan class="cls-10" x="128.34" y="0">TING</tspan><tspan class="cls-11" x="153.57" y="0"> </tspan><tspan class="cls-10" x="155.65" y="0">CHANG</tspan><tspan class="cls-12" x="192.42" y="0">E</tspan></text><text class="cls-13" transform="translate(41.75 70.74)"><tspan class="cls-14">A</tspan><tspan class="cls-15" x="22.9" y="0">LE</tspan><tspan class="cls-16" x="59.6" y="0">X</tspan><tspan class="cls-17" x="90.89" y="0">D</tspan><tspan class="cls-18" x="116.79" y="0">I</tspan><tspan class="cls-19" x="128.42" y="0">A</tspan><tspan class="cls-20" x="156.18" y="0">Z</tspan><tspan class="cls-18" x="177.07" y="0">-RIOS</tspan><tspan class="cls-21" x="278.08" y="0"> </tspan></text><path class="cls-22" d="M257.45,94.93h64.2V40.19H38.35V94.93h64.2"/><text class="cls-23" transform="translate(149.54 34.59)"><tspan class="cls-24">V</tspan><tspan x="8.28" y="0">O</tspan><tspan class="cls-25" x="18.26" y="0">TE </tspan><tspan class="cls-26" x="36.46" y="0">F</tspan><tspan class="cls-25" x="43.09" y="0">OR </tspan></text></svg>